<svg width="32" height="32" viewBox="0 0 32 32" fill="none" xmlns="http://www.w3.org/2000/svg">
<path d="M4.57143 0C2.05 0 0 2.05 0 4.57143V27.4286C0 29.95 2.05 32 4.57143 32H11.5857V21.5857H7.81429V16H11.5857V13.5929C11.5857 7.37143 14.4 4.48571 20.5143 4.48571C21.6714 4.48571 23.6714 4.71429 24.4929 4.94286V10C24.0643 9.95714 23.3143 9.92857 22.3786 9.92857C19.3786 9.92857 18.2214 11.0643 18.2214 14.0143V16H24.1929L23.1643 21.5857H18.2143V32H27.4286C29.95 32 32 29.95 32 27.4286V4.57143C32 2.05 29.95 0 27.4286 0H4.57143Z" fill="black"/>
</svg>
