<svg width="224" height="224" viewBox="0 0 224 224" fill="none" xmlns="http://www.w3.org/2000/svg">
<g clip-path="url(#clip0_52_344)">
<mask id="mask0_52_344" style="mask-type:luminance" maskUnits="userSpaceOnUse" x="0" y="0" width="224" height="224">
<path d="M224 0H0V224H224V0Z" fill="white"/>
</mask>
<g mask="url(#mask0_52_344)">
<path d="M-0.000305176 111.999C-0.000305176 173.855 50.1435 223.999 111.999 223.999C173.855 223.999 223.999 173.855 223.999 111.999C223.999 50.1437 173.855 -0.000244141 111.999 -0.000244141C50.1435 -0.000244141 -0.000305176 50.1437 -0.000305176 111.999Z" fill="#DA291C"/>
<path d="M57.4647 139.377H126.759V137.412H58.8957L57.4647 139.377Z" fill="white"/>
<path d="M55.023 142.433H102.67V161.129H104.635V142.433H105.725V161.129H107.69V142.433H108.781V161.129H110.746V142.433H111.836V161.129H113.801V142.433H114.892V161.129H116.857V142.433H126.759V140.467H56.6857L55.023 142.433Z" fill="white"/>
<path d="M59.686 136.321H126.759V134.356H61.1028L59.686 136.321Z" fill="white"/>
<path d="M61.8877 133.266H126.759V131.301H63.3105L61.8877 133.266Z" fill="white"/>
<path d="M102.67 100.819V128.245H83.002L102.67 100.819ZM110.711 89.6067L111.836 88.0369V128.245H110.746V89.6067H110.711ZM105.725 128.245H104.635V98.0789L105.725 96.5584V128.245ZM107.691 93.8181L108.781 92.2977V128.245H107.691V93.8181ZM114.892 128.245H113.801V85.2966L114.892 83.7762V128.245ZM116.857 128.245V77.6638L80.5837 128.245H79.2419L116.857 75.7927V72.4206L76.8238 128.245H75.482L116.857 70.5497V67.1775L73.0638 128.245H71.722L116.857 65.3066V61.9345L69.3039 128.245H67.9621L116.857 60.0634L116.843 56.7101L65.5349 128.258L65.5355 128.258L64.1182 130.21H126.759V128.245H116.857Z" fill="white"/>
<path d="M133.819 157.981L196.693 157.947L196.692 155.925L135.478 155.959L133.819 157.981Z" fill="white"/>
<path d="M136.417 154.837L196.691 154.804L196.69 152.783L138.065 152.815L136.417 154.837Z" fill="white"/>
<path d="M139.003 151.692L196.689 151.661L196.688 149.639L140.651 149.67L139.003 151.692Z" fill="white"/>
<path d="M131.188 161.126L196.695 161.09L196.694 159.069L132.869 159.104L131.188 161.126Z" fill="white"/>
<path d="M190.633 66.1643C180.651 55.7276 166.927 56.767 164.278 57.0816C161.697 57.3876 154.978 58.6561 148.329 63.8136C145.251 66.2006 140.991 70.3955 138.174 76.8246C136.422 80.8233 135.798 84.8642 135.733 85.3118C135.628 86.0329 135.548 86.7637 135.492 87.4883L137.527 87.3833C137.578 86.7897 137.647 86.1932 137.733 85.6036C137.794 85.1837 138.379 81.3917 140.025 77.6356C142.671 71.5957 146.674 67.6538 149.567 65.4105C155.992 60.4272 162.633 59.3116 164.516 59.0884C166.998 58.7937 179.854 57.8184 189.173 67.5612C194.741 73.3824 196.301 80.4169 196.63 85.293C197.024 91.1515 195.878 96.302 194.777 98.9324C194.677 99.1716 192.269 104.865 187.428 111.464C187.147 111.848 186.914 112.158 186.77 112.348L186.769 112.347L186.582 112.577C183.095 116.928 179.609 121.28 176.122 125.631V125.631L159.384 146.517L157.947 146.518L175.246 124.93L181.306 117.368C183.592 114.742 185.738 111.963 187.684 109.108C190.55 104.906 192.62 101.87 194.039 97.4766C195.563 92.7576 195.628 88.7947 195.586 87.3099C195.486 83.833 194.361 71.9316 184.081 64.7691C179.325 61.4556 173.689 59.8833 167.335 60.0967C167.004 60.1078 166.554 60.126 166.006 60.1675C165.497 60.2062 164.804 60.2661 163.954 60.3889C157.847 61.2712 152.491 64.7952 152.265 64.9458C146.197 68.9954 143.096 74.4864 141.787 77.3991C140.969 79.2176 139.892 82.1712 139.403 85.9147C139.344 86.3706 139.298 86.8328 139.258 87.2939L141.295 87.1888C141.328 86.8498 141.364 86.5113 141.407 86.1766C141.864 82.677 142.868 79.9221 143.63 78.2274C144.85 75.5127 147.74 70.3955 153.385 66.6279C153.436 66.5938 158.597 63.2047 164.243 62.3889C165.033 62.2749 165.682 62.2187 166.159 62.1825C166.667 62.144 167.073 62.1274 167.403 62.1163C173.312 61.9176 178.535 63.3686 182.926 66.4273C192.431 73.0496 193.473 84.1297 193.566 87.3679C193.597 88.4449 193.584 92.3115 192.116 96.8554C190.787 100.972 188.888 103.756 186.015 107.97C184.175 110.669 182.15 113.297 179.998 115.789L173.404 123.996L155.355 146.52L153.917 146.52L172.529 123.295L175.946 119.031L181.522 112.138C187.111 104.564 189.917 100.762 191.256 95.7563C192.884 89.6665 192.678 83.7816 190.66 78.7372L190.659 78.7353C189.929 76.8646 188.221 72.4838 183.947 68.7871C180.055 65.4205 175.112 63.4818 169.653 63.1804C169.089 63.1493 168.632 63.143 168.297 63.1411C168.252 63.1407 168.208 63.1406 168.163 63.1406C161.347 63.1445 155.539 66.4885 154.543 67.2008L154.54 67.1956C151.741 69.2208 147.854 72.8116 145.225 78.4181C144.075 80.8716 143.276 83.4819 142.849 86.1761H142.849C142.828 86.3059 142.808 86.4378 142.789 86.5723C142.764 86.7518 142.741 86.9332 142.721 87.1152L144.948 87.0001C144.954 86.9601 144.958 86.9194 144.964 86.8796C144.981 86.7594 144.999 86.6411 145.018 86.5245L145.018 86.5219C145.412 84.0307 146.151 81.6179 147.214 79.3504C149.637 74.1829 153.22 70.866 155.807 68.99C156.126 68.7829 161.555 65.3406 168.161 65.337C168.202 65.337 168.244 65.3371 168.285 65.3374C168.594 65.3392 169.015 65.345 169.531 65.3735C174.501 65.6478 178.989 67.4026 182.51 70.4482C186.355 73.7738 187.872 77.6338 188.603 79.508L188.617 79.5438C189.903 82.7536 191.036 88.0735 189.134 95.1891C187.902 99.7929 185.179 103.483 179.754 110.833C178.029 113.171 174.403 117.724 174.403 117.724L171.216 121.7L151.326 146.522L149.888 146.523L170.341 120.999L180.615 108.177L180.618 108.18C180.859 107.909 181.101 107.627 181.344 107.332C181.803 106.776 182.222 106.228 182.604 105.696C182.631 105.658 182.674 105.599 182.726 105.526C182.726 105.526 184.843 102.566 186.24 99.5576C190.712 89.9257 188.112 81.4234 188.112 81.4234C186.305 75.5073 182.896 72.0853 180.354 70.2564C174.569 66.0942 166.506 65.2688 159.812 68.1533C152.79 71.1787 149.739 77.2509 148.874 79.035C147.381 82.112 146.855 84.9536 146.659 86.9118L148.718 86.8054C148.909 85.492 149.454 82.4715 150.693 79.916C153.542 74.0324 157.659 71.2811 160.611 70.0092C166.667 67.3999 173.953 68.1406 179.173 71.8967C181.463 73.5441 184.537 76.6365 186.18 82.0137C187.766 87.2077 187.171 92.8213 184.411 98.6986C183.283 101.098 181.983 103.105 180.949 104.528L168.499 120.065L147.297 146.524L145.859 146.525L167.888 119.034L180.282 103.568L180.28 103.567C182.476 100.881 186.093 95.2517 185.776 87.6192C185.68 85.295 185.423 79.1208 180.654 74.455C177.819 71.6822 173.922 70.0034 169.68 69.7278C165.821 69.477 161.864 70.4043 158.822 72.2718C155.882 74.0765 154.196 76.533 153.476 77.5819C151.642 80.2528 150.445 83.4052 149.99 86.7398L152.047 86.6336C152.393 84.4239 153.22 81.5256 155.142 78.7255C155.844 77.7025 157.305 75.5741 159.879 73.994C165.138 70.7654 173.819 70.5955 179.241 75.8995C183.438 80.0051 183.67 85.5977 183.757 87.7031C184.047 94.682 180.715 99.8462 178.703 102.303L178.704 102.304L166.047 118.1L143.267 146.526H143.267L141.59 148.549L196.687 148.518L196.686 146.497L161.976 146.516L177.434 127.225H177.435C181.083 122.673 184.731 118.121 188.38 113.568C188.417 113.519 188.454 113.471 188.491 113.422C188.626 113.243 188.823 112.98 189.058 112.66C190.62 110.529 194.373 105.132 196.641 99.713C197.827 96.8794 199.064 91.3671 198.646 85.1571C198.143 77.6861 195.372 71.1186 190.633 66.1643Z" fill="white"/>
<path d="M63.3066 25.4373L61.9141 30.9563L64.1808 31.5282C65.6591 31.9012 67.2307 30.9349 67.6038 29.4567C67.9767 27.9784 67.0517 26.3822 65.5733 26.0092L63.3066 25.4373ZM63.5968 24.2875L63.4475 24.8788L65.7142 25.4507C67.5539 25.9148 68.6593 27.7662 68.1951 29.6059C67.7309 31.4456 65.8796 32.5509 64.0399 32.0867L61.7732 31.5148L61.6241 32.1061L63.8908 32.678C64.9749 32.9515 65.9941 32.7895 66.9404 32.2245C67.8866 31.6595 68.5129 30.8392 68.7864 29.7551C69.06 28.6709 68.8978 27.6517 68.3329 26.7054C67.7679 25.7592 66.9476 25.133 65.8635 24.8595L63.5968 24.2875ZM63.8951 23.1048L63.7459 23.6961L66.0126 24.2681C67.2611 24.583 68.1962 25.3082 68.8594 26.419C69.5226 27.5298 69.6844 28.6888 69.3777 29.9044C69.0711 31.1197 68.3376 32.0878 67.2268 32.751C66.1161 33.4142 64.957 33.5761 63.7415 33.2693L61.4748 32.6975L61.3256 33.2888L63.5923 33.8606C65.005 34.2171 66.312 34.0227 67.5462 33.2858C68.8216 32.5243 69.6126 31.4661 69.969 30.0535C70.3255 28.6408 70.1312 27.3339 69.3614 26.0914C68.6328 24.8243 67.5744 24.0331 66.1619 23.6768L63.8951 23.1048ZM64.1935 21.9222L64.0443 22.5135L66.311 23.0855C67.8879 23.4833 69.094 24.3815 69.8963 25.772C70.7313 27.1709 70.9499 28.6587 70.5604 30.2027C70.1708 31.7467 69.2726 32.9527 67.8738 33.7879C66.475 34.6229 64.9872 34.8416 63.4432 34.4519L61.1764 33.8801L61.0272 34.4714L63.2939 35.0433C65.0351 35.4827 66.6709 35.2314 68.1931 34.3226C69.7152 33.4139 70.7125 32.093 71.1517 30.3519C71.591 28.6107 71.3399 26.9749 70.431 25.4528C69.5222 23.9305 68.2014 22.9334 66.4602 22.4942L64.1935 21.9222ZM64.4919 20.7395L64.3428 21.3308L66.6095 21.9027C68.482 22.3751 69.9177 23.4712 70.9247 25.158C71.9318 26.8448 72.2156 28.6285 71.7431 30.5011C71.2707 32.3736 70.1664 33.8422 68.4796 34.8492C66.7928 35.8562 65.0173 36.1072 63.1447 35.6347L60.878 35.0628L60.7288 35.6541L62.9956 36.226C65.0652 36.7482 67.0216 36.473 68.8317 35.3924C70.6502 34.2787 71.8122 32.7199 72.3344 30.6503C72.8565 28.5806 72.5815 26.6243 71.5008 24.814C70.4199 23.004 68.8283 21.8336 66.7586 21.3114L64.4919 20.7395ZM66.9078 20.7201C69.1088 21.2754 70.8154 22.5447 71.9944 24.5194C73.1734 26.4941 73.4811 28.5984 72.9258 30.7995C72.3704 33.0005 71.1012 34.7069 69.1265 35.8859C67.1517 37.065 65.0474 37.3727 62.8463 36.8173L60.5796 36.2454L58.1593 45.838L57.568 45.6889L64.0498 19.999L66.9078 20.7201ZM63.4584 19.8498L56.9767 45.5397L56.3853 45.3905L62.8671 19.7007L63.4584 19.8498ZM62.2758 19.5514L55.7939 45.2413L55.2027 45.092L61.6845 19.4022L62.2758 19.5514ZM61.0932 19.253L54.6113 44.9429L54.02 44.7937L60.5019 19.1038L61.0932 19.253ZM59.9104 18.9547L53.4287 44.6444L52.8374 44.4953L59.3191 18.8054L59.9104 18.9547Z" fill="white"/>
<path d="M72.3796 45.1673L67.9906 71.2962L67.3892 71.1952L71.7782 45.0663L72.3796 45.1673ZM71.1767 44.9653L66.7877 71.0942L66.1862 70.9931L70.5754 44.8642L71.1767 44.9653ZM69.974 44.7632L65.5848 70.8921L64.9835 70.7911L69.3725 44.6622L69.974 44.7632ZM68.771 44.5611L64.382 70.69L63.7805 70.589L68.1697 44.4601L68.771 44.5611ZM67.5683 44.3591L63.1791 70.488L62.5778 70.387L66.9668 44.2581L67.5683 44.3591Z" fill="white"/>
<path d="M39.8085 71.8828L56.4403 69.2501L56.2345 69.9001L39.9039 72.4852L39.8085 71.8828ZM39.6178 70.6782L56.8185 67.9553L56.6127 68.6053L39.7132 71.2805L39.6178 70.6782ZM39.4271 69.4734L57.2302 66.6552L57.0243 67.3053L39.5225 70.0758L39.4271 69.4734ZM39.2365 68.2688L57.6083 65.3605L57.4025 66.0105L39.3318 68.8711L39.2365 68.2688ZM55.1817 71.2673L54.479 71.3786L47.6624 93.7597L46.9931 93.8657L53.8096 71.4845L53.1738 71.5852L46.3239 93.9717L45.688 94.0724L52.5045 71.6912L51.8353 71.7971L44.9853 94.1835L44.316 94.2895L51.1325 71.9083L50.4967 72.009L43.6801 94.3902L43.0109 94.4962L49.8273 72.115L40.0893 73.6565L39.9992 73.0875L56.0286 70.5501L50.753 87.7134L61.2273 86.0553L61.3227 86.6577L50.5806 88.3582L50.4083 89.003L61.418 87.2601L61.5134 87.8624L50.2025 89.6529L50.0301 90.2976L61.6087 88.4647L61.7042 89.0671L49.7909 90.9531L49.6184 91.5978L61.7995 89.6695L61.8949 90.2718L49.4126 92.2478L49.2403 92.8924L61.9902 90.8741L62.0856 91.4766L48.3317 93.6539L55.1817 71.2673Z" fill="white"/>
<path d="M34.4974 105.694L51.085 108.593L50.6797 109.141L34.3924 106.295L34.4974 105.694ZM34.7073 104.493L51.8623 107.49L51.4569 108.039L34.6024 105.094L34.7073 104.493ZM34.9172 103.291L52.673 106.394L52.2676 106.942L34.8123 103.892L34.9172 103.291ZM35.1273 102.09L53.4503 105.292L53.045 105.84L35.0223 102.691L35.1273 102.09ZM49.2406 110.093L48.5397 109.971L34.8389 128.936L34.1715 128.819L47.8721 109.854L47.2381 109.744L33.5039 128.703L32.8697 128.592L46.5705 109.627L45.9031 109.51L32.1689 128.47L31.5014 128.353L45.2022 109.388L44.5681 109.277L30.8673 128.242L30.1997 128.125L43.9005 109.16L34.1883 107.463L34.2875 106.896L50.2742 109.689L39.722 124.217L50.1685 126.043L50.0635 126.643L39.3499 124.771L38.9779 125.325L49.9586 127.244L49.8535 127.845L38.5726 125.874L38.2006 126.428L49.7485 128.446L49.6436 129.046L37.762 126.97L37.39 127.524L49.5386 129.647L49.4337 130.248L36.9847 128.073L36.6127 128.627L49.3287 130.848L49.2237 131.449L35.5065 129.053L49.2406 110.093Z" fill="white"/>
<path d="M38.4317 151.701L38.5691 152.295L45.7323 150.639L45.8697 151.233L38.7064 152.889L39.8433 157.808L49.4823 155.58L49.6197 156.174L39.9807 158.402L40.118 158.996L49.757 156.768L49.8944 157.362L40.2553 159.59L40.3927 160.184L50.0317 157.956L50.1691 158.551L40.5301 160.779L40.6674 161.373L50.3065 159.145L50.4438 159.739L40.8048 161.967L40.942 162.561L50.581 160.333L50.7184 160.927L40.4851 163.293L34.5183 137.478L44.7516 135.113L44.8889 135.707L35.2499 137.935L35.3872 138.529L45.0263 136.301L45.1636 136.896L35.5246 139.124L35.6619 139.718L45.301 137.49L45.4383 138.084L35.7993 140.312L35.9366 140.906L45.5757 138.678L45.713 139.272L36.074 141.5L36.2113 142.095L45.8504 139.867L45.98 140.428L36.341 142.656L37.4704 147.541L44.6336 145.886L44.771 146.48L37.6076 148.135L37.7449 148.73L44.9082 147.074L45.0456 147.668L37.8823 149.324L38.0197 149.918L45.1829 148.262L45.3203 148.856L38.157 150.512L38.2944 151.106L45.4576 149.451L45.595 150.045L38.4317 151.701ZM33.9241 137.616L39.8909 163.43L39.2968 163.567L33.3299 137.753L33.9241 137.616ZM32.7358 137.89L38.7026 163.705L38.1084 163.842L32.1416 138.028L32.7358 137.89ZM31.5473 138.165L37.5142 163.979L36.92 164.117L30.9532 138.302L31.5473 138.165ZM30.359 138.44L36.3258 164.254L35.7316 164.391L29.7648 138.577L30.359 138.44Z" fill="white"/>
<path d="M64.6558 170.929L67.9261 187.278L67.2605 187.151L64.0725 171.094C64.3119 171.105 64.4973 171.037 64.6558 170.929ZM63.529 171.232L66.6281 187.031L65.9624 186.905L62.8856 171.351C63.0647 171.316 63.277 171.288 63.529 171.232ZM62.2612 171.37L65.3301 186.784L64.6976 186.664L61.643 171.356C61.8157 171.355 62.0218 171.359 62.2612 171.37ZM66.065 171.68C67.2488 171.077 67.9839 170.114 68.2308 168.816C68.4397 167.717 68.2176 166.709 67.5977 165.798C66.9778 164.887 66.1217 164.31 65.0235 164.101L62.161 163.557L62.047 164.156L64.9095 164.7C66.7734 165.055 67.9862 166.838 67.6316 168.702C67.41 169.867 66.846 170.656 65.9459 171.037L66.065 171.68ZM66.2759 172.927C68.043 172.16 69.0808 170.874 69.429 169.044C69.7012 167.612 69.4299 166.319 68.5881 165.124C67.7858 163.903 66.6826 163.175 65.2514 162.903L62.3889 162.359L62.275 162.958L65.1375 163.502C66.4022 163.743 67.3787 164.411 68.1063 165.481C68.834 166.551 69.0641 167.698 68.8299 168.93C68.5323 170.494 67.6657 171.605 66.1903 172.29L66.2759 172.927ZM66.5267 174.148C68.8166 173.169 70.1904 171.568 70.6273 169.271C70.9629 167.507 70.6153 165.889 69.5849 164.417C68.5875 162.951 67.21 162.034 65.4793 161.705L62.6168 161.16L62.5029 161.76L65.3654 162.304C66.963 162.608 68.22 163.433 69.103 164.774C70.0194 166.121 70.3258 167.593 70.0281 169.158C69.6293 171.254 68.4267 172.681 66.441 173.511L66.5267 174.148ZM66.7775 175.368C69.592 174.351 71.2747 172.395 71.8255 169.499C72.2243 167.403 71.8341 165.466 70.6481 163.723C69.4621 161.98 67.8042 160.906 65.7072 160.507L62.8447 159.962L62.7308 160.561L65.5933 161.106C67.4905 161.467 68.9884 162.476 70.0935 164.1C71.1985 165.724 71.5873 167.488 71.2263 169.385C70.7261 172.015 69.2146 173.797 66.6917 174.731L66.7775 175.368ZM66.9092 175.945L69.1909 187.519L68.5586 187.398L65.239 170.764C66.277 170.203 66.8616 169.486 67.0326 168.588C67.3174 167.09 66.2996 165.551 64.8019 165.266L61.9394 164.722L60.7048 171.212L61.0376 171.275L64.0319 186.537L63.3994 186.417L60.5465 172.044L58.0075 185.391L57.4083 185.277L62.3597 159.249L65.8212 159.908C68.0512 160.332 69.8298 161.498 71.1236 163.399C72.4173 165.301 72.8487 167.383 72.4245 169.613C72.0764 171.444 71.1939 173.001 69.7837 174.25C68.8218 175.136 67.8567 175.677 66.9092 175.945ZM61.7606 159.135L56.8093 185.163L56.2101 185.049L61.1613 159.021L61.7606 159.135ZM60.5623 158.907L55.611 184.935L55.0119 184.821L59.9633 158.793L60.5623 158.907ZM59.3641 158.679L54.4129 184.707L53.8136 184.593L58.765 158.565L59.3641 158.679ZM58.1658 158.451L53.2146 184.479L52.6154 184.366L57.5668 158.337L58.1658 158.451Z" fill="white"/>
<path d="M80.064 179.281L84.0606 205.473L83.4578 205.565L79.4611 179.373L80.064 179.281ZM78.8583 179.465L82.8549 205.657L82.252 205.749L78.2553 179.557L78.8583 179.465ZM77.6525 179.649L81.6491 205.841L81.0463 205.933L77.0496 179.741L77.6525 179.649ZM76.4468 179.833L80.4434 206.025L79.8405 206.117L75.8438 179.925L76.4468 179.833ZM75.241 180.017L79.2376 206.209L78.6348 206.301L74.6381 180.109L75.241 180.017Z" fill="white"/>
<path d="M107.755 203.405L105.487 194.251L100.937 202.498L107.755 203.405ZM100.621 203.071L100.306 203.644L108.03 204.672L107.909 204.041L100.621 203.071ZM99.9566 204.213L99.6412 204.786L108.339 205.944L108.219 205.313L99.9566 204.213ZM99.3591 205.364L99.01 205.932L108.649 207.216L108.494 206.58L99.3591 205.364ZM108.996 208.458L108.837 207.856L98.7279 206.51L98.4169 207.05L108.996 208.458ZM98.1012 207.623L95.6281 212.079L94.99 211.994L108.763 187.099L109.435 187.188L116.182 214.815L115.51 214.726L108.958 187.945L108.549 188.711L114.839 214.636L114.2 214.552L108.097 189.539L107.687 190.305L113.596 214.471L112.924 214.382L107.244 191.067L106.83 191.866L112.32 214.301L111.648 214.212L106.387 192.627L105.964 193.494L110.976 214.122L110.338 214.037L109.151 209.094L98.1012 207.623ZM108.092 187.01L94.3184 211.905L93.6467 211.815L107.454 186.925L108.092 187.01ZM106.815 186.84L93.0421 211.735L92.3704 211.645L106.177 186.755L106.815 186.84ZM105.539 186.67L91.766 211.565L91.0943 211.475L104.834 186.576L105.539 186.67ZM104.162 186.486L90.4561 211.39L89.7844 211.301L103.524 186.401L104.162 186.486Z" fill="white"/>
</g>
</g>
<defs>
<clipPath id="clip0_52_344">
<rect width="224" height="224" fill="white"/>
</clipPath>
</defs>
</svg>
